Coordinates
version=1
nRows=4
nColumns=107
inDegrees=yes

Units are S.I. units (second, meters, Newtons, ...)
If the header above contains a line with 'inDegrees', this indicates whether rotational values are in degrees (yes) or radians (no).

endheader
time	sternoclavicular_r2	sternoclavicular_r3	unrotscap_r3	unrotscap_r2	acromioclavicular_r2	acromioclavicular_r3	acromioclavicular_r1	unrothum_r1	unrothum_r3	unrothum_r2	elv_angle	shoulder_elv	shoulder1_r2	shoulder_rot	elbow_flexion	pro_sup	deviation	flexion	proximal_distal_r1	proximal_distal_r3	cmc_flexion	cmc_abduction	mp_flexion	ip_flexion	mcp2_flexion	mcp2_abduction	pm2_flexion	md2_flexion	mcp3_flexion	mcp3_abduction	pm3_flexion	md3_flexion	mcp4_flexion	mcp4_abduction	pm4_flexion	md4_flexion	mcp5_flexion	mcp5_abduction	pm5_flexion	md5_flexion	bicpt_tx	bicpt_ty	bicpt_tz	bicpt2_tx	bicpt2_ty	bicpt2_tz	ptpt_tx	ptpt_ty	ptpt_tz	FCUpt_tx	FCUpt_ty	FCUpt_tz	EDCpt_tx	EDCpt_ty	EDCpt_tz	APLpt_tx	APLpt_ty	APLpt_tz	FPLpt_tx	FPLpt_ty	FPLpt_tz	FPLpt2_tx	FPLpt2_ty	FPLpt2_tz	PEC1pt2_tx	PEC1pt2_ty	PEC1pt2_tz	PEC1pt3_tx	PEC1pt3_ty	PEC1pt3_tz	PEC2pt2_tx	PEC2pt2_ty	PEC2pt2_tz	PEC2pt3_tx	PEC2pt3_ty	PEC2pt3_tz	PEC3pt2_tx	PEC3pt2_ty	PEC3pt2_tz	PEC3pt3_tx	PEC3pt3_ty	PEC3pt3_tz	DELT2pt2a_tx	DELT2pt2a_ty	DELT2pt2a_tz	DELT2pt2_tx	DELT2pt2_ty	DELT2pt2_tz	LAT1pt2_tx	LAT1pt2_ty	LAT1pt2_tz	LAT1pt3_tx	LAT1pt3_ty	LAT1pt3_tz	LAT2pt2_tx	LAT2pt2_ty	LAT2pt2_tz	LAT2pt3_tx	LAT2pt3_ty	LAT2pt3_tz	LAT3pt2_tx	LAT3pt2_ty	LAT3pt2_tz	LAT3pt3_tx	LAT3pt3_ty	LAT3pt3_tz
      0.50000000	     -0.31060125	      0.13155603	     -0.13155603	      0.31060125	     -0.06289044	      0.50825837	      0.22845864	     -0.22845864	     -0.50825837	      0.06289044	    102.48853273	     73.53760692	     -1.78876234	    -41.90890312	     31.59147312	     85.15793394	      0.35534825	     -0.40845877	      0.37890303	     -0.20422938	     42.20244975	    -12.55486999	      8.27327568	      7.58673322	    106.66914351	     12.41190937	     80.17022463	     73.57426513	     97.83843272	      0.07864634	     83.63527562	     54.56163622	     90.78998236	    -13.53754613	     97.02246606	     42.14168304	     98.15874574	    -14.28979599	     92.69720677	      5.64230850	      0.00094495	     -0.03122087	     -0.00488323	      0.01432615	     -0.01878198	     -0.00121975	      0.00125779	     -0.06896865	     -0.00690993	      0.01264138	     -0.18226615	      0.00006087	     -0.01021893	      0.00353191	     -0.00073037	      0.00027819	      0.00011128	      0.00055639	      0.00035609	      0.00106827	      0.00060090	     -0.00000698	     -0.00006559	     -0.00007871	      0.00241040	      0.00845683	      0.00588301	     -0.00788487	      0.01903809	     -0.01805758	      0.00241040	      0.00845683	      0.00588301	      0.00053111	      0.01764904	     -0.00927392	      0.00384714	      0.00470274	      0.01571598	      0.00000000	      0.00722881	      0.00000000	     -0.00690437	     -0.03190718	     -0.00595722	      0.02320895	     -0.00118071	     -0.01405714	     -0.00085794	      0.01438070	     -0.00588301	      0.00236955	      0.02075396	     -0.01715879	     -0.00576045	      0.01246055	     -0.00527020	     -0.01201115	      0.02631014	     -0.02945592	     -0.02255155	      0.01393130	     -0.00706779	     -0.01495266	      0.03039557	     -0.03680969
      0.53333333	     -0.31306660	      0.13260024	     -0.13260024	      0.31306660	     -0.06338962	      0.51229260	      0.23027200	     -0.23027200	     -0.51229260	      0.06338962	    101.95282835	     74.12130134	     -1.77941254	    -39.05251846	     30.74241877	     82.08259007	      0.36062470	     -0.45227856	      0.38297163	     -0.22613928	     42.38065436	    -12.70153717	      7.94974234	      6.06125525	    107.64774048	     12.22730528	     79.77244277	     76.86176305	     98.63756676	     -0.22245861	     83.45597919	     55.48076613	     91.58736690	    -13.57211555	     97.05752597	     41.52660210	     99.27692359	    -14.29311687	     92.86218970	      5.53524804	      0.00091686	     -0.03112355	     -0.00486755	      0.01462729	     -0.01855133	     -0.00173613	      0.00148502	     -0.06882171	     -0.00666219	      0.01229035	     -0.18236822	     -0.00001832	     -0.00984989	      0.00336541	     -0.00063559	      0.00029145	      0.00011658	      0.00058290	      0.00037306	      0.00111917	      0.00062953	     -0.00000662	     -0.00006167	     -0.00007401	      0.00242953	      0.00852396	      0.00592971	     -0.00794746	      0.01918920	     -0.01820091	      0.00242953	      0.00852396	      0.00592971	      0.00053532	      0.01778913	     -0.00934753	      0.00386973	      0.00474006	      0.01577330	      0.00000000	      0.00734475	      0.00000000	     -0.00695917	     -0.03216044	     -0.00605353	      0.02234300	     -0.00107641	     -0.01235983	     -0.00086475	      0.01449484	     -0.00592971	      0.00238836	      0.02091870	     -0.01729498	     -0.00580617	      0.01255945	     -0.00531203	     -0.01210649	      0.02651898	     -0.02968972	     -0.02273055	      0.01404188	     -0.00712389	     -0.01507134	      0.03063683	     -0.03710186
      0.56666667	     -0.31059308	      0.13155257	     -0.13155257	      0.31059308	     -0.06288878	      0.50824501	      0.22845264	     -0.22845264	     -0.50824501	      0.06288878	    102.54312701	     73.53567358	     -1.78971519	    -42.04686524	     31.52898519	     85.20170331	      0.35454170	     -0.41327166	      0.37827700	     -0.20663583	     42.20583493	    -12.63826307	      8.35266980	      7.48849920	    106.97709306	     12.37471764	     79.95188469	     75.07493919	     97.97204184	      0.09801990	     83.50304172	     54.52345694	     90.96468882	    -13.53395671	     96.93820310	     41.85919254	     98.35129974	    -14.28899915	     92.17148221	      5.62603448	      0.00094288	     -0.03121370	     -0.00488207	      0.01432170	     -0.01876500	     -0.00121230	      0.00125456	     -0.06897074	     -0.00691345	      0.01264639	     -0.18226468	      0.00006205	     -0.01022418	      0.00353430	     -0.00073176	      0.00027988	      0.00011195	      0.00055976	      0.00035825	      0.00107474	      0.00060454	     -0.00000697	     -0.00006552	     -0.00007862	      0.00241034	      0.00845661	      0.00588286	     -0.00788466	      0.01903758	     -0.01805711	      0.00241034	      0.00845661	      0.00588286	      0.00053109	      0.01764858	     -0.00927367	      0.00384706	      0.00470261	      0.01571578	      0.00000000	      0.00722843	      0.00000000	     -0.00690419	     -0.03190634	     -0.00595690	      0.02324789	     -0.00118578	     -0.01414088	     -0.00085792	      0.01438032	     -0.00588286	      0.00236948	      0.02075342	     -0.01715834	     -0.00576030	      0.01246022	     -0.00527006	     -0.01201084	      0.02630945	     -0.02945515	     -0.02255096	      0.01393094	     -0.00706760	     -0.01495227	      0.03039477	     -0.03680872
      0.60000000	     -0.31352013	      0.13279233	     -0.13279233	      0.31352013	     -0.06348145	      0.51303474	      0.23060558	     -0.23060558	     -0.51303474	      0.06348145	    101.57352914	     74.22867763	     -1.77279252	    -38.00538810	     31.12247817	     81.96375185	      0.37075763	     -0.40281661	      0.39065794	     -0.20140830	     41.98751441	    -13.14581436	      8.64330138	      5.86682875	    107.05920905	     12.28878537	     80.14933292	     78.19726080	     98.08578667	     -0.06387705	     83.51644263	     56.16967146	     91.33043845	    -13.57702840	     96.77344397	     41.81414541	     99.19860822	    -14.29233779	     91.56566921	      5.58179065	      0.00092943	     -0.03116711	     -0.00487457	      0.01463853	     -0.01865457	     -0.00175584	      0.00149380	     -0.06881604	     -0.00665262	      0.01227684	     -0.18237211	     -0.00002125	     -0.00983563	      0.00335903	     -0.00063202	      0.00027625	      0.00011050	      0.00055251	      0.00035361	      0.00106082	      0.00059671	     -0.00000740	     -0.00007029	     -0.00008435	      0.00243305	      0.00853631	      0.00593830	     -0.00795897	      0.01921700	     -0.01822728	      0.00243305	      0.00853631	      0.00593830	      0.00053610	      0.01781490	     -0.00936107	      0.00387388	      0.00474693	      0.01578375	      0.00000000	      0.00736618	      0.00000000	     -0.00696925	     -0.03220703	     -0.00607134	      0.02199837	     -0.00103854	     -0.01175517	     -0.00086600	      0.01451584	     -0.00593830	      0.00239181	      0.02094900	     -0.01732004	     -0.00581458	      0.01257765	     -0.00531973	     -0.01212403	      0.02655739	     -0.02973273	     -0.02276348	      0.01406222	     -0.00713421	     -0.01509318	      0.03068121	     -0.03715561
